HIERARCHY
ROOT Hips
{
	OFFSET 0.000000 0.000000 0.000000
	CHANNELS 6 Xposition Yposition Zposition Zrotation Yrotation Xrotation 
	JOINT LHipJoint
	{
		OFFSET 0.000000 0.000000 0.000000
		CHANNELS 3 Zrotation Yrotation Xrotation
		JOINT LeftUpLeg
		{
			OFFSET 1.363060 -1.794630 0.839290
			CHANNELS 3 Zrotation Yrotation Xrotation
			JOINT LeftLeg
			{
				OFFSET 2.448110 -6.726130 0.000000
				CHANNELS 3 Zrotation Yrotation Xrotation
				JOINT LeftFoot
				{
					OFFSET 2.562200 -7.039590 0.000000
					CHANNELS 3 Zrotation Yrotation Xrotation
					JOINT LeftToeBase
					{
						OFFSET 0.157640 -0.433110 2.322550
						CHANNELS 3 Zrotation Yrotation Xrotation
						End Site
						{
							OFFSET 0.000000 0.000000 0.000000
						}
					}
				}
			}
		}
	}
	JOINT RHipJoint
	{
		OFFSET 0.000000 0.000000 0.000000
		CHANNELS 3 Zrotation Yrotation Xrotation
		JOINT RightUpLeg
		{
			OFFSET -1.305520 -1.794630 0.839290
			CHANNELS 3 Zrotation Yrotation Xrotation
			JOINT RightLeg
			{
				OFFSET -2.542530 -6.985550 0.000000
				CHANNELS 3 Zrotation Yrotation Xrotation
				JOINT RightFoot
				{
					OFFSET -2.568260 -7.056230 0.000000
					CHANNELS 3 Zrotation Yrotation Xrotation
					JOINT RightToeBase
					{
						OFFSET -0.164730 -0.452590 2.363150
						CHANNELS 3 Zrotation Yrotation Xrotation
						End Site
						{
							OFFSET 0.000000 0.000000 0.000000
						}
					}
				}
			}
		}
	}
}
MOTION
Frames: 17
Frame Time: 0.008333
5.112321 17.374726 1.063560 -175.945914 -65.063579 -172.928558 -12.328956 3.933327 -0.155289 -9.306769 31.944963 -15.441996 -3.439291 -1.233861 -4.627584 0.957145 7.567832 1.014132 1.148200 0.000000 -27.662900 8.307642 -1.776831 5.944220 5.065328 7.078065 -13.551334 3.833411 2.354421 -4.211795 1.477917 7.447670 5.888111 0.955800 -0.000000 -36.032400
5.107214 17.374994 1.066755 -176.173980 -64.831660 -172.884165 -12.354512 3.949858 -0.170156 -9.261021 31.996634 -15.222672 -3.422610 -1.226171 -4.504934 0.984376 7.791120 0.905049 1.162600 -0.000000 -27.556600 8.292471 -1.795887 5.961707 4.964839 7.188465 -13.411328 3.818131 2.334125 -4.129465 1.477537 7.533914 5.850063 0.979500 0.000000 -36.003800
5.102799 17.374152 1.069416 -176.413595 -64.525155 -172.819726 -12.377959 3.956219 -0.204863 -9.218206 32.068182 -15.011949 -3.404808 -1.215541 -4.336588 1.020201 8.071045 0.747700 1.176900 0.000000 -27.438700 8.276390 -1.808393 5.977577 4.854633 7.333905 -13.261365 3.805146 2.315064 -4.093857 1.485970 7.669321 5.837142 1.013900 0.000000 -35.970200
5.098903 17.372163 1.071206 -176.658708 -64.167140 -172.729578 -12.398294 3.952890 -0.254384 -9.187929 32.157607 -14.827152 -3.388378 -1.204016 -4.128687 1.061603 8.385001 0.549618 1.188500 0.000000 -27.315900 8.259550 -1.817809 5.996522 4.734564 7.508446 -13.108818 3.794796 2.299326 -4.119387 1.503620 7.843030 5.853633 1.055600 0.000000 -35.936500
5.095565 17.369037 1.071964 -176.904541 -63.781778 -172.611524 -12.414314 3.940072 -0.314049 -9.178733 32.266021 -14.686451 -3.375944 -1.193415 -3.887278 1.105145 8.707618 0.319524 1.194400 0.000000 -27.195800 8.242221 -1.827363 6.022995 4.606077 7.704995 -12.962123 3.787351 2.288591 -4.217426 1.531103 8.044652 5.903305 1.101300 -0.000001 -35.907800
5.092667 17.364890 1.071566 -177.144072 -63.389763 -172.466891 -12.425262 3.918257 -0.379657 -9.195817 32.396018 -14.603655 -3.369727 -1.185199 -3.620081 1.147459 9.014421 0.066446 1.192400 0.000000 -27.085200 8.224650 -1.839692 6.060311 4.472598 7.915857 -12.828680 3.783017 2.283914 -4.393334 1.568698 8.265039 5.989069 1.148200 0.000000 -35.887100
5.089913 17.359902 1.070091 -177.365779 -63.006315 -172.301805 -12.431091 3.888805 -0.446736 -9.241088 32.551103 -14.587536 -3.371270 -1.180401 -3.336222 1.185631 9.284983 -0.199921 1.181400 -0.000000 -26.988900 8.206958 -1.855395 6.107407 4.343941 8.138863 -12.811183 3.775967 2.268554 -4.439588 1.603319 8.501024 5.997211 1.194200 0.000001 -35.876600
5.087090 17.354390 1.067637 -177.562642 -62.641905 -172.122578 -12.432074 3.853706 -0.510996 -9.314123 32.731375 -14.641297 -3.381090 -1.179299 -3.045029 1.217640 9.505551 -0.469971 1.161400 -0.000000 -26.908900 8.189025 -1.873438 6.161288 4.231042 8.373063 -13.021203 3.760184 2.223527 -4.120071 1.618060 8.750886 5.799900 1.237900 0.000000 -35.875300
5.084034 17.348701 1.064374 -177.728445 -62.302046 -171.934450 -12.428733 3.815125 -0.570258 -9.413179 32.931947 -14.763485 -3.398578 -1.181152 -2.757222 1.242973 9.672327 -0.734138 1.134200 0.000001 -26.843400 8.170856 -1.894320 6.225779 4.128306 8.603978 -13.302303 3.746273 2.177497 -3.765541 1.632886 9.000117 5.585970 1.278300 0.000000 -35.876400
5.080615 17.343265 1.060512 -177.859832 -61.992574 -171.744220 -12.421921 3.775081 -0.621259 -9.532431 33.138486 -14.942055 -3.421356 -1.185680 -2.485542 1.262400 9.792472 -0.982715 1.103200 0.000001 -26.787000 8.152569 -1.917165 6.298258 4.038777 8.824535 -13.637137 3.734980 2.132384 -3.396003 1.647753 9.241443 5.370952 1.315100 0.000000 -35.875100
5.076502 17.338421 1.056040 -177.956731 -61.719089 -171.552374 -12.412110 3.735335 -0.662646 -9.671150 33.347512 -15.175954 -3.449298 -1.192105 -2.230318 1.275404 9.862844 -1.210594 1.069700 0.000000 -26.735500 8.133941 -1.942062 6.378952 3.961618 9.035535 -14.008512 3.726590 2.090766 -3.038372 1.662030 9.461584 5.171164 1.347000 0.000000 -35.870800
5.071827 17.334467 1.051318 -178.017499 -61.490597 -171.369561 -12.399961 3.696376 -0.691765 -9.815754 33.527647 -15.434586 -3.476755 -1.200837 -2.008695 1.285539 9.911801 -1.409913 1.039200 -0.000000 -26.680599 8.116012 -1.967925 6.461577 3.899876 9.227075 -14.387667 3.721076 2.054014 -2.716147 1.675357 9.655043 4.999602 1.374700 -0.000000 -35.854300
5.066700 17.331572 1.046494 -178.045073 -61.314610 -171.200735 -12.385465 3.658365 -0.709019 -9.958499 33.666794 -15.703783 -3.501654 -1.211309 -1.820362 1.293858 9.947667 -1.579399 1.013101 0.000000 -26.617600 8.099635 -1.994243 6.542940 3.853150 9.396805 -14.750453 3.717980 2.023770 -2.453386 1.686858 9.811735 4.866549 1.397700 -0.000000 -35.826900
5.061318 17.329763 1.041768 -178.041818 -61.199136 -171.052667 -12.368631 3.621227 -0.714935 -10.089056 33.749956 -15.964188 -3.521247 -1.223128 -1.665995 1.301983 9.982653 -1.719707 0.992901 -0.000000 -26.543000 8.086024 -2.020221 6.618619 3.821495 9.540229 -15.072754 3.716648 2.001045 -2.267847 1.695691 9.924603 4.777554 1.415799 0.000000 -35.788601
5.056022 17.328960 1.037351 -178.011923 -61.150189 -170.931621 -12.349613 3.584931 -0.710668 -10.197141 33.765793 -16.196525 -3.533145 -1.235736 -1.544579 1.311353 10.027468 -1.832675 0.979300 0.000000 -26.455300 8.076393 -2.044826 6.684044 3.804578 9.652497 -15.333223 3.716273 1.986290 -2.170012 1.701086 9.989313 4.733101 1.428300 -0.000000 -35.741400
5.051294 17.329008 1.033457 -177.961260 -61.171634 -170.843375 -12.328695 3.549661 -0.697781 -10.274645 33.710125 -16.386727 -3.536098 -1.248205 -1.450752 1.322594 10.086145 -1.922481 0.971900 0.000000 -26.355300 8.071629 -2.066950 6.735422 3.801790 9.729189 -15.516611 3.716032 1.979405 -2.161951 1.702370 10.003330 4.729646 1.434601 -0.000000 -35.687800
5.047508 17.329704 1.030243 -177.894825 -61.265024 -170.791751 -12.306472 3.515853 -0.677721 -10.316005 33.584076 -16.525180 -3.529773 -1.259692 -1.378890 1.335683 10.157982 -1.993532 0.969600 -0.000000 -26.245700 8.072173 -2.085878 6.769951 3.812367 9.766629 -15.614024 3.715174 1.979719 -2.237442 1.699084 9.966695 4.760400 1.433700 0.000001 -35.630400
